<svg xmlns="http://www.w3.org/2000/svg" width="1200" height="630" viewBox="0 0 1200 630" fill="none">
  <defs>
    <linearGradient id="bg" x1="0" y1="0" x2="1200" y2="630" gradientUnits="userSpaceOnUse">
      <stop offset="0" stop-color="#000000"/>
      <stop offset="1" stop-color="#0a0a0a"/>
    </linearGradient>
    <pattern id="grid" width="48" height="48" patternUnits="userSpaceOnUse">
      <path d="M48 0 L0 0 0 48" fill="none" stroke="#1f1f1f" stroke-width="1"/>
    </pattern>
  </defs>

  <rect width="1200" height="630" fill="url(#bg)"/>
  <rect width="1200" height="630" fill="url(#grid)"/>

  <g transform="translate(80, 80)">
    <rect width="64" height="64" rx="14" fill="#ffffff"/>
    <path d="M18 46 L32 32 L18 18" stroke="#000000" stroke-width="5" fill="none" stroke-linecap="round" stroke-linejoin="round"/>
    <line x1="36" y1="46" x2="50" y2="46" stroke="#000000" stroke-width="5" stroke-linecap="round"/>
    <text x="84" y="46" font-family="Inter, system-ui, sans-serif" font-size="36" font-weight="600" fill="#ffffff">appctl</text>
  </g>

  <g transform="translate(80, 250)">
    <text font-family="Inter, system-ui, sans-serif" font-size="76" font-weight="700" fill="#ffffff" letter-spacing="-2">
      <tspan x="0" dy="0">Your app.</tspan>
      <tspan x="0" dy="90">Any LLM.</tspan>
      <tspan x="0" dy="90" fill="#d4d4d8">One sync.</tspan>
    </text>
  </g>

  <g transform="translate(80, 560)">
    <text font-family="Inter, system-ui, sans-serif" font-size="24" font-weight="400" fill="#a1a1aa">
      Open-source agent runtime for FastAPI, Django, Rails, Laravel, ASP.NET, SQL, and MCP.
    </text>
  </g>

  <g transform="translate(720, 180)">
    <rect width="400" height="300" rx="14" fill="#121212" stroke="#262626" stroke-width="1.5"/>
    <g transform="translate(16, 16)">
      <circle cx="6" cy="6" r="6" fill="#ff5f56"/>
      <circle cx="26" cy="6" r="6" fill="#ffbd2e"/>
      <circle cx="46" cy="6" r="6" fill="#27c93f"/>
    </g>
    <g font-family="JetBrains Mono, monospace" font-size="15" fill="#e4e4e7">
      <text x="24" y="68"><tspan fill="#ffffff">$</tspan> appctl chat</text>
      <text x="24" y="104" fill="#a1a1aa">&gt; list all parcels in Addis Ababa</text>
      <text x="24" y="144" fill="#d4d4d8">--&gt; tool: list_parcels</text>
      <text x="24" y="172" fill="#e4e4e7">    city: "Addis Ababa"</text>
      <text x="24" y="212" fill="#d4d4d8">&lt;-- 12 results</text>
      <text x="24" y="252" fill="#ffffff">I found 12 parcels in Addis</text>
      <text x="24" y="276" fill="#ffffff">Ababa. Want the full list?</text>
    </g>
  </g>
</svg>
